<svg id="Capa_1" enable-background="new 0 0 512 512" height="512" viewBox="0 0 512 512" width="512" xmlns="http://www.w3.org/2000/svg"><g><path d="m512 256c0 46.19-12.24 89.53-33.65 126.95-9.56 16.7-73.467 8.048-86.417 22.118-2.35 2.57-4.76 5.08-7.22 7.55-23.66 23.71.567 67.002-30.873 80.012-30.14 12.49-63.19 19.37-97.84 19.37-141.38 0-256-114.62-256-256 0-34.66 6.89-67.7 19.37-97.85 14.34-34.66 36.08-65.48 63.25-90.5 45.6-41.99 106.5-67.65 173.38-67.65 141.38 0 256 114.62 256 256z" fill="#f4db51"/><g><path d="m424.218 409.028c-2.35 2.57 15.472 25.312 13.012 27.783-23.66 23.71-51.95 42.81-83.39 55.82-21.61-1.07-42.95-7.63-61.87-19.58-102.09-64.5-188.53-150.94-253.02-253.03-11.95-18.921-18.51-40.261-19.58-61.871-1.08-21.87 3.48-44 13.81-64.16l22.99-44.92c7.49 10.32 16.82 14.82 26.45 18.58 12.08 4.73 24.62 8.31 34.6 20.78 17.95 22.41 27.61 73.53 46.57 95.04l-15.71 19.56c21.83 31.38 46.35 60.69 73.28 87.61 26.91 26.92 56.22 51.44 87.6 73.27l19.56-15.71c11.51 10.13 26.07 12.89 40.92 15.15 16.4 2.5 33.13 4.39 46.43 14.9 12.39 9.8-.482 11.888 8.348 30.778z" fill="#6978d8"/><path d="m369.442 363.354c-14.854-2.262-29.41-5.02-40.917-15.152l-19.568 15.707 29.766 24.265z" fill="#545fc0"/><path d="m112.516 318.974c-6.727-9.693-13.255-19.535-19.568-29.526-24.042-38.059-26.295-85.96-5.774-126.032l22.998-44.918c8.649 11.896 19.734 16.055 30.901 20.28-7.348-19.079-14.473-38.63-23.851-50.345-17.937-22.408-44.149-16.095-61.049-39.358l-22.998 44.918c-20.521 40.072-18.267 87.973 5.774 126.032 22.037 34.894 46.65 67.957 73.567 98.949z" fill="#545fc0"/><path d="m163.788 183.466 25.044-31.191c7.754-9.643 8.144-23.271.969-33.345l-64.743-90.89c-6.694-9.411-18.532-13.661-29.675-10.67-10.646 2.858-20.214 8.45-27.844 16.08-4.532 4.532-8.384 9.792-11.366 15.625 33.792 46.517 69.705 91.361 107.615 134.391z" fill="#50405a"/><path d="m168.013 88.343-42.955-60.303c-6.694-9.411-18.532-13.661-29.675-10.67-10.646 2.858-20.214 8.45-27.844 16.08-4.532 4.532-8.384 9.792-11.366 15.625 17.323 23.851 35.209 47.255 53.634 70.203.232-.497.365-.779.365-.779 2.982-5.832 6.835-11.093 11.366-15.625 7.63-7.63 17.199-13.222 27.844-16.08 6.346-1.707 12.915-1.069 18.631 1.549z" fill="#362a40"/><path d="m478.35 382.95c-11.3 19.75-25.16 37.86-41.12 53.86-27.23-20.51-53.85-41.75-79.84-63.72-9.71-8.2-19.33-16.5-28.87-24.89l31.2-25.04c9.65-7.75 23.28-8.14 33.35-.96l35.38 25.21z" fill="#50405a"/><path d="m428.452 347.407-35.383-25.21c-10.074-7.174-23.702-6.785-33.353.961l-31.191 25.044c9.536 8.392 19.154 16.685 28.863 24.886l30.263-24.447c11.789-9.519 28.466-10.024 40.801-1.234z" fill="#362a40"/></g><g><path d="m297.575 206.54v30.154c0 15.147 16.742 24.309 29.5 16.144l70.263-44.968" fill="#78c378"/><path d="m325.065 253.964c-12.43 6.08-27.49-2.9-27.49-17.27v-30.15l16.62.22v29.93c0 7.96 4.63 14.27 10.87 17.27z" fill="#5fa258"/><path d="m300.306 215.482h147.555c29.044 0 52.588-23.545 52.588-52.588v-77.056c0-29.044-23.545-52.588-52.588-52.588h-147.555c-29.044 0-52.588 23.545-52.588 52.588v77.056c0 29.043 23.545 52.588 52.588 52.588z" fill="#78c378"/><path d="m326.908 215.478h-26.6c-29.04 0-52.59-23.54-52.59-52.59v-77.05c0-29.05 23.55-52.59 52.59-52.59h26.6c-29.04 0-52.58 23.54-52.58 52.59v77.05c0 29.05 23.54 52.59 52.58 52.59z" fill="#5fa258"/><g fill="#50405a"><path d="m454.476 104.5h-130.923c-6.272 0-11.356-5.084-11.356-11.356v-.234c0-6.272 5.084-11.356 11.356-11.356h130.922c6.272 0 11.356 5.084 11.356 11.356v.234c0 6.272-5.084 11.356-11.355 11.356z"/><path d="m425.027 143.407h-101.357c-6.336 0-11.473-5.136-11.473-11.473 0-6.336 5.136-11.473 11.473-11.473h101.358c6.336 0 11.473 5.136 11.473 11.473-.001 6.337-5.137 11.473-11.474 11.473z"/></g></g></g></svg>