<?xml version="1.0" encoding="utf-8"?>
<!-- Generator: Adobe Illustrator 23.0.5, SVG Export Plug-In . SVG Version: 6.00 Build 0)  -->
<svg version="1.1" id="Layer_1" xmlns="http://www.w3.org/2000/svg" xmlns:xlink="http://www.w3.org/1999/xlink" x="0px" y="0px"
	 viewBox="0 0 893.4 386.5" style="enable-background:new 0 0 893.4 386.5;" xml:space="preserve">
<style type="text/css">
	.st0{display:none;fill:#D5663B;}
	.st1{display:none;fill:#89CCB7;}
	.st2{fill:#E6E9E8;}
	.st3{fill:#89CCB7;}
	.st4{fill:#D5663B;}
	.st5{fill:#365147;}
</style>
<rect x="-172.3" y="26.4" class="st0" width="1238" height="1238"/>
<g>
	<g>
		<path class="st2" d="M43.7,235.5c-3.8-3.8-5.7-9.2-5.7-16.2V50.8c0-7,2.1-12.6,6.3-16.8c4.2-4.2,9.9-6.3,17.1-6.3
			c7.2,0,12.9,2.1,17.1,6.3c4.2,4.2,6.3,9.8,6.3,16.8V203h77c14.6,0,22,6.4,22,19.2c0,12.6-7.3,18.9-22,18.9H59.9
			C52.9,241.2,47.5,239.3,43.7,235.5z"/>
		<path class="st4" d="M220.3,220.9c-15.5-15.3-23.3-37.7-23.3-67.2V50.8c0-7,2.1-12.6,6.3-16.8c4.2-4.2,9.8-6.3,16.8-6.3
			c7,0,12.6,2.1,16.7,6.3c4.1,4.2,6.2,9.8,6.2,16.8v104.9c0,16.8,3.9,29.7,11.6,38.5c7.7,8.8,18.9,13.2,33.5,13.2
			c14.6,0,25.9-4.5,33.7-13.4c7.8-8.9,11.7-21.7,11.7-38.3V50.8c0-7,2.1-12.6,6.2-16.8c4.1-4.2,9.7-6.3,16.7-6.3
			c7,0,12.6,2.1,16.8,6.3c4.2,4.2,6.3,9.8,6.3,16.8v102.8c0,29.3-7.8,51.6-23.5,67.1c-15.6,15.4-38.3,23.2-68,23.2
			C258.5,243.9,235.9,236.2,220.3,220.9z"/>
		<path class="st2" d="M624.8,34.1c4.1,4.3,6.2,9.9,6.2,16.7v170.8c0,6.6-1.9,11.8-5.7,15.6c-3.8,3.8-8.8,5.7-15,5.7
			c-6,0-10.9-1.9-14.7-5.7c-3.8-3.8-5.7-9-5.7-15.6V115.5L547,195.8c-2.8,5.2-5.9,9-9.2,11.4c-3.3,2.4-7.3,3.6-11.9,3.6
			c-4.4,0-8.3-1.2-11.7-3.6c-3.4-2.4-6.5-6.2-9.3-11.4L462.2,117v104.6c0,6.4-1.9,11.6-5.7,15.5c-3.8,3.9-8.8,5.9-15,5.9
			c-6,0-10.9-1.9-14.7-5.7c-3.8-3.8-5.7-9-5.7-15.6V50.8c0-6.8,2.1-12.4,6.2-16.7c4.1-4.3,9.5-6.5,16.1-6.5c9.6,0,16.9,5.1,22,15.3
			l61,115.8L587,43c5.4-10.2,12.6-15.3,21.7-15.3C615.3,27.7,620.7,29.8,624.8,34.1z"/>
		<path class="st2" d="M873.6,222.2c0,5.6-2.3,10.4-6.8,14.3c-4.5,3.9-9.7,5.9-15.5,5.9c-3.8,0-7.4-1.1-10.8-3.2
			c-3.4-2.1-6-5.3-7.8-9.5l-15.9-35.5H714.8l-15.9,35.5c-1.8,4.2-4.4,7.4-7.7,9.5c-3.3,2.1-7,3.2-11,3.2c-5.8,0-11-2-15.6-5.9
			c-4.6-3.9-6.9-8.7-6.9-14.3c0-2.8,0.8-6,2.4-9.6l81.2-170.5c2.2-4.8,5.5-8.5,9.9-11c4.4-2.5,9.1-3.8,14.1-3.8
			c5.2,0,10,1.3,14.4,3.9c4.4,2.6,7.8,6.2,10.2,10.8l81.2,170.5C872.8,216.2,873.6,219.4,873.6,222.2z M730.8,158.8h70.1L766,80.6
			L730.8,158.8z"/>
	</g>
	<g>
		<path class="st2" d="M86,347c0.4,0.5,0.6,1,0.6,1.6c0,0.8-0.3,1.7-0.9,2.4c-0.6,0.8-1.7,1.7-3.3,2.7c-6,3.6-12.2,5.4-18.7,5.4
			c-9.1,0-16.3-2.8-21.5-8.4c-5.2-5.6-7.8-13.3-7.8-23.1c0-6.3,1.2-11.8,3.5-16.5s5.6-8.5,9.9-11.1c4.3-2.6,9.2-4,14.7-4
			c7.7,0,13.7,2.5,18.2,7.5c4.4,5,6.6,11.9,6.6,20.6c0,1.5-0.3,2.6-0.9,3.3c-0.6,0.7-1.6,1-3.1,1H40.1c0.1,8.2,2.2,14.5,6.2,18.9
			c4.1,4.4,9.8,6.6,17.1,6.6c4,0,7.3-0.5,10-1.6c2.6-1.1,5.2-2.5,7.7-4.3c1.8-1.2,2.9-1.8,3.4-1.8C85.1,346.3,85.6,346.5,86,347z
			 M47,306.9c-3.9,4-6.2,9.5-6.8,16.6h42c-0.2-7.3-2-12.9-5.4-16.7c-3.4-3.9-8.2-5.8-14.4-5.8C56.1,300.9,50.9,302.9,47,306.9z"/>
		<path class="st2" d="M113.3,357.7c-3.3-1-6.2-2.3-8.8-3.9c-1.7-1.1-2.8-2-3.4-2.7c-0.6-0.7-0.9-1.5-0.9-2.4c0-0.6,0.2-1.1,0.6-1.6
			c0.4-0.5,0.9-0.7,1.5-0.7c0.4,0,1,0.2,1.7,0.7c0.7,0.5,1.2,0.8,1.4,0.9c2.4,1.8,5,3.2,7.6,4.3c2.6,1.1,6,1.7,10,1.7
			c5.4,0,9.6-1,12.5-3c2.9-2,4.4-4.8,4.4-8.5c0-2.2-0.5-4-1.6-5.4c-1-1.4-2.8-2.7-5.1-3.7c-2.4-1-5.8-2.1-10.2-3.1
			c-7.4-1.7-12.6-3.8-15.8-6.4c-3.2-2.6-4.8-6-4.8-10.3c0-5.2,2-9.4,6.1-12.7c4.1-3.3,9.3-4.9,15.7-4.9c3.1,0,6.1,0.4,8.9,1.3
			c2.8,0.8,5.3,2,7.5,3.5c1.6,1.2,2.7,2.2,3.4,3.1c0.7,0.9,1.1,1.8,1.1,2.7c0,0.6-0.2,1.1-0.6,1.6c-0.4,0.5-0.9,0.7-1.5,0.7
			c-0.7,0-1.8-0.6-3.3-1.9c-2.2-1.7-4.5-3.1-6.8-4.1c-2.4-1.1-5.4-1.6-9-1.6c-4.7,0-8.5,1.1-11.3,3.3c-2.9,2.2-4.3,5.1-4.3,8.7
			c0,2.2,0.5,4,1.4,5.3c0.9,1.4,2.5,2.6,4.7,3.6c2.2,1,5.4,2,9.5,2.9c5.8,1.4,10.2,2.9,13.3,4.3c3.1,1.5,5.3,3.2,6.6,5.3
			s1.9,4.7,1.9,7.8c0,5-2.1,9.1-6.2,12.1c-4.1,3.1-9.6,4.6-16.5,4.6C119.8,359.1,116.6,358.6,113.3,357.7z"/>
		<path class="st2" d="M190.8,356.5c0,1.8-1.2,2.6-3.6,2.4l-3.3-0.3c-6.3-0.4-10.9-2.3-13.8-5.7c-2.9-3.4-4.4-8.6-4.4-15.7v-35.1
			h-10.4c-0.6,0-1.1-0.2-1.5-0.6c-0.4-0.4-0.6-0.9-0.6-1.5c0-0.7,0.2-1.2,0.6-1.7c0.4-0.5,0.9-0.7,1.5-0.7h10.4v-16.7
			c0-0.9,0.2-1.6,0.8-2.1c0.5-0.5,1.1-0.8,1.9-0.8c0.8,0,1.4,0.3,1.9,0.8c0.5,0.5,0.8,1.2,0.8,2.1v16.7h16.7c0.6,0,1.1,0.2,1.5,0.7
			c0.4,0.5,0.6,1,0.6,1.7c0,0.6-0.2,1.1-0.6,1.5c-0.4,0.4-0.9,0.6-1.6,0.6H171v35.2c0,5.7,1.1,9.7,3.3,12.2
			c2.2,2.4,5.7,3.8,10.3,4.3l3.4,0.3C189.9,354.1,190.8,355,190.8,356.5z"/>
		<path class="st2" d="M248.9,297c0.5,0.5,0.7,1.2,0.7,2V356c0,1.9-0.9,2.9-2.6,2.9c-0.8,0-1.4-0.3-1.8-0.8
			c-0.5-0.5-0.7-1.2-0.7-2.1v-9.2c-1.9,3.9-4.7,7-8.3,9.1c-3.6,2.1-7.8,3.2-12.4,3.2c-7,0-12.4-2-16-5.9c-3.6-3.9-5.5-9.7-5.5-17.3
			V299c0-0.8,0.2-1.5,0.7-2c0.5-0.5,1.1-0.8,1.9-0.8c0.8,0,1.5,0.3,1.9,0.8c0.5,0.5,0.7,1.2,0.7,2v36.4c0,6.4,1.3,11,3.9,14
			c2.6,3,6.6,4.5,12,4.5c6.3,0,11.3-2,15.1-6c3.8-4,5.7-9.3,5.7-15.9V299c0-0.8,0.2-1.5,0.7-2c0.5-0.5,1.1-0.8,1.9-0.8
			C247.8,296.3,248.4,296.5,248.9,297z"/>
		<path class="st2" d="M319.7,270c0.5,0.5,0.7,1.2,0.7,2.1v83.8c0,0.9-0.2,1.6-0.7,2.1c-0.5,0.5-1.1,0.8-1.9,0.8
			c-1.8,0-2.6-1-2.6-2.9v-9.9c-1.8,4.3-4.6,7.5-8.2,9.8c-3.6,2.3-8,3.4-13.1,3.4c-5.4,0-10.1-1.3-14.2-4c-4.1-2.6-7.3-6.4-9.5-11.2
			c-2.3-4.8-3.4-10.4-3.4-16.7c0-6.3,1.1-11.7,3.4-16.4c2.3-4.7,5.4-8.3,9.5-10.9c4.1-2.6,8.8-3.9,14.2-3.9c5.1,0,9.5,1.1,13.1,3.4
			c3.6,2.3,6.4,5.5,8.2,9.7v-37c0-1.9,0.9-2.9,2.6-2.9C318.6,269.2,319.3,269.5,319.7,270z M309.6,347.1c3.7-4.6,5.6-11.1,5.6-19.6
			c0-8.4-1.8-14.8-5.5-19.4c-3.7-4.6-8.9-6.9-15.7-6.9c-6.8,0-12.1,2.3-15.9,6.8c-3.8,4.6-5.7,11-5.7,19.2c0,8.4,1.9,14.9,5.7,19.6
			c3.8,4.7,9,7.1,15.7,7.1C300.6,354,305.9,351.7,309.6,347.1z"/>
		<path class="st2" d="M341.1,280c-0.9-0.8-1.4-1.9-1.4-3.3c0-1.4,0.4-2.5,1.3-3.4c0.9-0.8,2-1.3,3.3-1.3c1.3,0,2.4,0.4,3.3,1.3
			c0.9,0.8,1.3,2,1.3,3.4c0,1.3-0.5,2.4-1.4,3.3c-0.9,0.8-2,1.3-3.3,1.3C343.1,281.2,342,280.8,341.1,280z M342.4,358.1
			c-0.5-0.5-0.7-1.2-0.7-2.1V299c0-0.8,0.2-1.5,0.7-2c0.5-0.5,1.1-0.8,1.9-0.8c0.8,0,1.5,0.3,1.9,0.8c0.5,0.5,0.7,1.2,0.7,2V356
			c0,0.9-0.2,1.6-0.7,2.1c-0.5,0.5-1.1,0.8-1.9,0.8C343.5,358.9,342.9,358.6,342.4,358.1z"/>
		<path class="st2" d="M377.1,355.2c-4.1-2.6-7.3-6.3-9.5-11c-2.3-4.8-3.4-10.3-3.4-16.7c0-6.3,1.1-11.8,3.4-16.5
			c2.3-4.8,5.4-8.4,9.5-11c4.1-2.6,8.8-3.9,14.2-3.9c5.3,0,10.1,1.3,14.2,3.9c4.1,2.6,7.3,6.3,9.5,11c2.3,4.8,3.4,10.3,3.4,16.5
			c0,6.4-1.1,11.9-3.4,16.7c-2.3,4.8-5.4,8.4-9.5,11c-4.1,2.6-8.8,3.9-14.2,3.9C385.9,359.1,381.2,357.8,377.1,355.2z M407.1,347.1
			c3.7-4.6,5.6-11.1,5.6-19.6c0-8.3-1.9-14.7-5.7-19.4c-3.8-4.6-9-7-15.7-7c-6.7,0-11.9,2.3-15.7,7c-3.8,4.6-5.7,11.1-5.7,19.4
			c0,8.5,1.9,15.1,5.6,19.6c3.7,4.6,9,6.8,15.7,6.8C398.1,354,403.4,351.7,407.1,347.1z"/>
		<path class="st2" d="M475.4,355.2c-4.2-2.6-7.4-6.3-9.7-11c-2.3-4.8-3.4-10.2-3.4-16.4c0-6.3,1.1-11.8,3.4-16.6
			c2.3-4.8,5.6-8.5,9.8-11.2c4.2-2.6,9-4,14.5-4c3.1,0,6.1,0.4,9,1.2c2.9,0.8,5.5,2,7.8,3.7c1.6,1.3,2.7,2.3,3.3,3.1
			c0.6,0.8,0.9,1.7,0.9,2.6c0,0.6-0.2,1.1-0.6,1.6c-0.4,0.5-0.9,0.7-1.5,0.7c-0.4,0-0.9-0.2-1.5-0.6c-0.6-0.4-1.2-0.8-1.9-1.3
			c-2.3-1.8-4.5-3.2-6.8-4.3c-2.3-1.1-5.2-1.6-8.6-1.6c-6.9,0-12.4,2.4-16.3,7.1c-3.9,4.8-5.9,11.3-5.9,19.7
			c0,8.2,1.9,14.6,5.8,19.2c3.9,4.6,9.3,6.9,16.2,6.9c3.5,0,6.5-0.5,9-1.6c2.5-1.1,4.8-2.5,7.1-4.3c1.6-1.2,2.7-1.8,3.3-1.8
			c0.6,0,1.1,0.2,1.5,0.6c0.4,0.4,0.6,0.9,0.6,1.5c0,0.8-0.3,1.6-0.9,2.3c-0.6,0.7-1.7,1.7-3.4,3c-2.2,1.6-4.8,2.9-8,3.9
			s-6.3,1.5-9.4,1.5C484.3,359.1,479.6,357.8,475.4,355.2z"/>
		<path class="st2" d="M552.7,296.3c1,0,1.7,0.2,2.1,0.6c0.4,0.4,0.6,0.9,0.6,1.7c0,1.4-0.9,2.3-2.6,2.5l-3.8,0.4
			c-6.1,0.6-10.7,2.8-13.8,6.8c-3.1,3.9-4.6,8.4-4.6,13.5V356c0,0.9-0.2,1.6-0.7,2.1c-0.5,0.5-1.1,0.8-1.9,0.8
			c-0.8,0-1.5-0.3-1.9-0.8c-0.5-0.5-0.7-1.2-0.7-2.1v-56.8c0-1.9,0.9-2.9,2.6-2.9c0.8,0,1.4,0.3,1.9,0.8c0.5,0.5,0.8,1.2,0.8,2.1v9
			c3.6-7.2,10.1-11.1,19.6-11.8l1.8-0.1H552.7z"/>
		<path class="st2" d="M612.4,347c0.4,0.5,0.6,1,0.6,1.6c0,0.8-0.3,1.7-0.9,2.4c-0.6,0.8-1.7,1.7-3.3,2.7c-6,3.6-12.2,5.4-18.7,5.4
			c-9.1,0-16.3-2.8-21.5-8.4c-5.2-5.6-7.8-13.3-7.8-23.1c0-6.3,1.2-11.8,3.5-16.5s5.6-8.5,9.9-11.1c4.3-2.6,9.2-4,14.7-4
			c7.7,0,13.7,2.5,18.2,7.5c4.4,5,6.6,11.9,6.6,20.6c0,1.5-0.3,2.6-0.9,3.3c-0.6,0.7-1.6,1-3.1,1h-43.1c0.1,8.2,2.2,14.5,6.2,18.9
			c4.1,4.4,9.8,6.6,17.1,6.6c4,0,7.3-0.5,10-1.6c2.6-1.1,5.2-2.5,7.7-4.3c1.8-1.2,2.9-1.8,3.4-1.8C611.5,346.3,612,346.5,612.4,347z
			 M573.5,306.9c-3.9,4-6.2,9.5-6.8,16.6h42c-0.2-7.3-2-12.9-5.4-16.7c-3.4-3.9-8.2-5.8-14.4-5.8
			C582.5,300.9,577.4,302.9,573.5,306.9z"/>
		<path class="st2" d="M674.9,318.5v37.4c0,0.9-0.2,1.6-0.7,2.1c-0.5,0.5-1.1,0.8-1.9,0.8c-0.8,0-1.5-0.3-2-0.8
			c-0.5-0.5-0.8-1.2-0.8-2.1v-8.8c-1.8,3.8-4.5,6.8-8,8.9c-3.5,2.1-7.4,3.1-11.8,3.1c-3.8,0-7.4-0.8-10.5-2.4
			c-3.2-1.6-5.7-3.7-7.6-6.5c-1.9-2.7-2.9-5.7-2.9-9.1c-0.1-4.6,1-8.1,3.4-10.7c2.3-2.5,6.3-4.3,11.8-5.4c5.5-1.1,13.2-1.6,23.2-1.6
			h2.5v-5.3c0-5.9-1.2-10.3-3.6-13c-2.4-2.7-6.1-4.1-11.2-4.1c-4,0-7.6,0.5-10.7,1.6c-3.1,1-5.6,2.2-7.5,3.6c-0.3,0.2-1,0.7-2.1,1.4
			c-1,0.7-1.9,1.1-2.6,1.1c-0.6,0-1.1-0.2-1.6-0.7c-0.5-0.5-0.7-1-0.7-1.7c0-1.6,1.5-3.3,4.4-5c2.9-1.8,6.1-3.1,9.6-4
			c3.5-0.9,6.9-1.4,10.3-1.4C667.9,296,674.9,303.5,674.9,318.5z M659.8,351.1c3-1.8,5.4-4.3,7.1-7.5c1.7-3.2,2.6-6.8,2.6-10.8v-4.5
			h-2.4c-8.8,0-15.5,0.4-20.1,1.1c-4.6,0.7-7.8,1.9-9.7,3.6c-1.8,1.7-2.8,4.2-2.8,7.6c0,3.8,1.4,7,4.3,9.5c2.8,2.5,6.4,3.7,10.8,3.7
			C653.4,353.8,656.8,352.9,659.8,351.1z"/>
		<path class="st2" d="M723.5,356.5c0,1.8-1.2,2.6-3.6,2.4l-3.3-0.3c-6.3-0.4-10.9-2.3-13.8-5.7c-2.9-3.4-4.4-8.6-4.4-15.7v-35.1
			H688c-0.6,0-1.1-0.2-1.5-0.6c-0.4-0.4-0.6-0.9-0.6-1.5c0-0.7,0.2-1.2,0.6-1.7c0.4-0.5,0.9-0.7,1.5-0.7h10.4v-16.7
			c0-0.9,0.3-1.6,0.8-2.1c0.5-0.5,1.1-0.8,1.9-0.8c0.8,0,1.4,0.3,1.9,0.8c0.5,0.5,0.8,1.2,0.8,2.1v16.7h16.7c0.6,0,1.1,0.2,1.5,0.7
			c0.4,0.5,0.6,1,0.6,1.7c0,0.6-0.2,1.1-0.6,1.5c-0.4,0.4-0.9,0.6-1.6,0.6h-16.7v35.2c0,5.7,1.1,9.7,3.3,12.2
			c2.2,2.4,5.7,3.8,10.3,4.3l3.4,0.3C722.6,354.1,723.5,355,723.5,356.5z"/>
		<path class="st2" d="M734.7,280c-0.9-0.8-1.4-1.9-1.4-3.3c0-1.4,0.4-2.5,1.3-3.4c0.9-0.8,2-1.3,3.3-1.3c1.3,0,2.4,0.4,3.3,1.3
			c0.9,0.8,1.3,2,1.3,3.4c0,1.3-0.5,2.4-1.4,3.3c-0.9,0.8-2,1.3-3.3,1.3C736.7,281.2,735.6,280.8,734.7,280z M736,358.1
			c-0.5-0.5-0.7-1.2-0.7-2.1V299c0-0.8,0.2-1.5,0.7-2c0.5-0.5,1.1-0.8,1.9-0.8c0.8,0,1.5,0.3,1.9,0.8c0.5,0.5,0.7,1.2,0.7,2V356
			c0,0.9-0.2,1.6-0.7,2.1c-0.5,0.5-1.1,0.8-1.9,0.8C737.1,358.9,736.4,358.6,736,358.1z"/>
		<path class="st2" d="M809.4,296.3c0.7,0,1.3,0.2,1.8,0.7c0.5,0.5,0.8,1.1,0.8,1.8c0,0.3-0.1,0.6-0.2,1.1l-25.5,56.2
			c-0.8,1.5-1.9,2.3-3.5,2.3c-0.8,0-1.4-0.2-2-0.6c-0.6-0.4-1-0.9-1.4-1.7L754,299.9l-0.2-1c0-0.8,0.3-1.4,0.9-1.9
			c0.6-0.5,1.3-0.8,2-0.8c1.1,0,1.8,0.5,2.1,1.5l24.1,54.4l24.2-54C807.5,296.9,808.3,296.3,809.4,296.3z"/>
		<path class="st2" d="M833.3,355.2c-4.1-2.6-7.3-6.3-9.5-11s-3.4-10.3-3.4-16.7c0-6.3,1.1-11.8,3.4-16.5c2.3-4.8,5.4-8.4,9.5-11
			c4.1-2.6,8.8-3.9,14.2-3.9c5.3,0,10.1,1.3,14.2,3.9c4.1,2.6,7.3,6.3,9.5,11c2.3,4.8,3.4,10.3,3.4,16.5c0,6.4-1.1,11.9-3.4,16.7
			s-5.4,8.4-9.5,11c-4.1,2.6-8.8,3.9-14.2,3.9C842.2,359.1,837.4,357.8,833.3,355.2z M863.4,347.1c3.7-4.6,5.6-11.1,5.6-19.6
			c0-8.3-1.9-14.7-5.7-19.4c-3.8-4.6-9-7-15.7-7c-6.7,0-11.9,2.3-15.7,7c-3.8,4.6-5.7,11.1-5.7,19.4c0,8.5,1.9,15.1,5.6,19.6
			c3.7,4.6,9,6.8,15.7,6.8C854.3,354,859.6,351.7,863.4,347.1z"/>
	</g>
</g>
</svg>
