<?xml version="1.0" encoding="utf-8"?>
<!-- Generator: Adobe Illustrator 23.0.5, SVG Export Plug-In . SVG Version: 6.00 Build 0)  -->
<svg version="1.1" id="Layer_1" xmlns="http://www.w3.org/2000/svg" xmlns:xlink="http://www.w3.org/1999/xlink" x="0px" y="0px"
	 viewBox="0 0 893.4 386.5" style="enable-background:new 0 0 893.4 386.5;" xml:space="preserve">
<style type="text/css">
	.st0{display:none;fill:#D5663B;}
	.st1{display:none;fill:#89CCB7;}
	.st2{fill:#E6E9E8;}
	.st3{fill:#89CCB7;}
	.st4{fill:#D5663B;}
	.st5{fill:#365147;}
</style>
<rect x="-172.3" y="-425.8" class="st0" width="1238" height="1238"/>
<g>
	<g>
		<path class="st2" d="M35.9,235.5c-3.8-3.8-5.7-9.2-5.7-16.2V50.8c0-7,2.1-12.6,6.3-16.8c4.2-4.2,9.9-6.3,17.1-6.3
			c7.2,0,12.9,2.1,17.1,6.3c4.2,4.2,6.3,9.8,6.3,16.8V203h77c14.6,0,22,6.4,22,19.2c0,12.6-7.3,18.9-22,18.9H52.1
			C45.1,241.2,39.7,239.3,35.9,235.5z"/>
		<path class="st3" d="M212.6,220.9c-15.5-15.3-23.3-37.7-23.3-67.2V50.8c0-7,2.1-12.6,6.3-16.8c4.2-4.2,9.8-6.3,16.8-6.3
			c7,0,12.6,2.1,16.7,6.3c4.1,4.2,6.2,9.8,6.2,16.8v104.9c0,16.8,3.9,29.7,11.6,38.5c7.7,8.8,18.9,13.2,33.5,13.2
			c14.6,0,25.9-4.5,33.7-13.4c7.8-8.9,11.7-21.7,11.7-38.3V50.8c0-7,2.1-12.6,6.2-16.8c4.1-4.2,9.7-6.3,16.7-6.3
			c7,0,12.6,2.1,16.8,6.3c4.2,4.2,6.3,9.8,6.3,16.8v102.8c0,29.3-7.8,51.6-23.5,67.1c-15.6,15.4-38.3,23.2-68,23.2
			C250.7,243.9,228.1,236.2,212.6,220.9z"/>
		<path class="st2" d="M617,34.1c4.1,4.3,6.2,9.9,6.2,16.7v170.8c0,6.6-1.9,11.8-5.7,15.6c-3.8,3.8-8.8,5.7-15,5.7
			c-6,0-10.9-1.9-14.7-5.7c-3.8-3.8-5.7-9-5.7-15.6V115.5l-42.7,80.3c-2.8,5.2-5.9,9-9.2,11.4s-7.3,3.6-11.9,3.6
			c-4.4,0-8.3-1.2-11.7-3.6c-3.4-2.4-6.5-6.2-9.3-11.4L454.5,117v104.6c0,6.4-1.9,11.6-5.7,15.5c-3.8,3.9-8.8,5.9-15,5.9
			c-6,0-10.9-1.9-14.7-5.7c-3.8-3.8-5.7-9-5.7-15.6V50.8c0-6.8,2.1-12.4,6.2-16.7c4.1-4.3,9.5-6.5,16.1-6.5c9.6,0,16.9,5.1,22,15.3
			l61,115.8L579.3,43c5.4-10.2,12.6-15.3,21.7-15.3C607.5,27.7,612.9,29.8,617,34.1z"/>
		<path class="st2" d="M865.8,222.2c0,5.6-2.3,10.4-6.8,14.3c-4.5,3.9-9.7,5.9-15.5,5.9c-3.8,0-7.4-1.1-10.8-3.2
			c-3.4-2.1-6-5.3-7.8-9.5L809,194.3H707.1l-15.9,35.5c-1.8,4.2-4.4,7.4-7.7,9.5c-3.3,2.1-7,3.2-11,3.2c-5.8,0-11-2-15.6-5.9
			c-4.6-3.9-6.9-8.7-6.9-14.3c0-2.8,0.8-6,2.4-9.6l81.2-170.5c2.2-4.8,5.5-8.5,9.9-11c4.4-2.5,9.1-3.8,14.1-3.8
			c5.2,0,10,1.3,14.4,3.9c4.4,2.6,7.8,6.2,10.2,10.8l81.2,170.5C865,216.2,865.8,219.4,865.8,222.2z M723,158.8h70.1l-34.9-78.2
			L723,158.8z"/>
	</g>
	<g>
		<path class="st2" d="M78.2,347c0.4,0.5,0.6,1,0.6,1.6c0,0.8-0.3,1.7-0.9,2.4c-0.6,0.8-1.7,1.7-3.3,2.7c-6,3.6-12.2,5.4-18.7,5.4
			c-9.1,0-16.3-2.8-21.5-8.4c-5.2-5.6-7.8-13.3-7.8-23.1c0-6.3,1.2-11.8,3.5-16.5s5.6-8.5,9.9-11.1c4.3-2.6,9.2-4,14.7-4
			c7.7,0,13.7,2.5,18.2,7.5c4.4,5,6.6,11.9,6.6,20.6c0,1.5-0.3,2.6-0.9,3.3c-0.6,0.7-1.6,1-3.1,1H32.3c0.1,8.2,2.2,14.5,6.2,18.9
			c4.1,4.4,9.8,6.6,17.1,6.6c4,0,7.3-0.5,10-1.6c2.6-1.1,5.2-2.5,7.7-4.3c1.8-1.2,2.9-1.8,3.4-1.8C77.3,346.3,77.8,346.5,78.2,347z
			 M39.3,306.9c-3.9,4-6.2,9.5-6.8,16.6h42c-0.2-7.3-2-12.9-5.4-16.7c-3.4-3.9-8.2-5.8-14.4-5.8C48.3,300.9,43.2,302.9,39.3,306.9z"
			/>
		<path class="st2" d="M105.5,357.7c-3.3-1-6.2-2.3-8.8-3.9c-1.7-1.1-2.8-2-3.4-2.7c-0.6-0.7-0.9-1.5-0.9-2.4c0-0.6,0.2-1.1,0.6-1.6
			c0.4-0.5,0.9-0.7,1.5-0.7c0.4,0,1,0.2,1.7,0.7c0.7,0.5,1.2,0.8,1.4,0.9c2.4,1.8,5,3.2,7.6,4.3c2.6,1.1,6,1.7,10,1.7
			c5.4,0,9.6-1,12.5-3c2.9-2,4.4-4.8,4.4-8.5c0-2.2-0.5-4-1.6-5.4c-1-1.4-2.8-2.7-5.1-3.7c-2.4-1-5.8-2.1-10.2-3.1
			c-7.4-1.7-12.6-3.8-15.8-6.4c-3.2-2.6-4.8-6-4.8-10.3c0-5.2,2-9.4,6.1-12.7c4.1-3.3,9.3-4.9,15.7-4.9c3.1,0,6.1,0.4,8.9,1.3
			c2.8,0.8,5.3,2,7.5,3.5c1.6,1.2,2.7,2.2,3.4,3.1c0.7,0.9,1.1,1.8,1.1,2.7c0,0.6-0.2,1.1-0.6,1.6c-0.4,0.5-0.9,0.7-1.5,0.7
			c-0.7,0-1.8-0.6-3.3-1.9c-2.2-1.7-4.5-3.1-6.8-4.1c-2.4-1.1-5.4-1.6-9-1.6c-4.7,0-8.5,1.1-11.3,3.3c-2.9,2.2-4.3,5.1-4.3,8.7
			c0,2.2,0.5,4,1.4,5.3c0.9,1.4,2.5,2.6,4.7,3.6c2.2,1,5.4,2,9.5,2.9c5.8,1.4,10.2,2.9,13.3,4.3c3.1,1.5,5.3,3.2,6.6,5.3
			c1.3,2,1.9,4.7,1.9,7.8c0,5-2.1,9.1-6.2,12.1c-4.1,3.1-9.6,4.6-16.5,4.6C112.1,359.1,108.8,358.6,105.5,357.7z"/>
		<path class="st2" d="M183,356.5c0,1.8-1.2,2.6-3.6,2.4l-3.3-0.3c-6.3-0.4-10.9-2.3-13.8-5.7c-2.9-3.4-4.4-8.6-4.4-15.7v-35.1
			h-10.4c-0.6,0-1.1-0.2-1.5-0.6c-0.4-0.4-0.6-0.9-0.6-1.5c0-0.7,0.2-1.2,0.6-1.7c0.4-0.5,0.9-0.7,1.5-0.7h10.4v-16.7
			c0-0.9,0.2-1.6,0.8-2.1c0.5-0.5,1.1-0.8,1.9-0.8c0.8,0,1.4,0.3,1.9,0.8c0.5,0.5,0.8,1.2,0.8,2.1v16.7h16.7c0.6,0,1.1,0.2,1.5,0.7
			c0.4,0.5,0.6,1,0.6,1.7c0,0.6-0.2,1.1-0.6,1.5c-0.4,0.4-0.9,0.6-1.6,0.6h-16.7v35.2c0,5.7,1.1,9.7,3.3,12.2
			c2.2,2.4,5.7,3.8,10.3,4.3l3.4,0.3C182.1,354.1,183,355,183,356.5z"/>
		<path class="st2" d="M241.1,297c0.5,0.5,0.7,1.2,0.7,2V356c0,1.9-0.9,2.9-2.6,2.9c-0.8,0-1.4-0.3-1.8-0.8
			c-0.5-0.5-0.7-1.2-0.7-2.1v-9.2c-1.9,3.9-4.7,7-8.3,9.1c-3.6,2.1-7.8,3.2-12.4,3.2c-7,0-12.4-2-16-5.9c-3.6-3.9-5.5-9.7-5.5-17.3
			V299c0-0.8,0.2-1.5,0.7-2c0.5-0.5,1.1-0.8,1.9-0.8c0.8,0,1.5,0.3,1.9,0.8c0.5,0.5,0.7,1.2,0.7,2v36.4c0,6.4,1.3,11,3.9,14
			c2.6,3,6.6,4.5,12,4.5c6.3,0,11.3-2,15.1-6c3.8-4,5.7-9.3,5.7-15.9V299c0-0.8,0.2-1.5,0.7-2c0.5-0.5,1.1-0.8,1.9-0.8
			S240.7,296.5,241.1,297z"/>
		<path class="st2" d="M312,270c0.5,0.5,0.7,1.2,0.7,2.1v83.8c0,0.9-0.2,1.6-0.7,2.1c-0.5,0.5-1.1,0.8-1.9,0.8c-1.8,0-2.6-1-2.6-2.9
			v-9.9c-1.8,4.3-4.6,7.5-8.2,9.8c-3.6,2.3-8,3.4-13.1,3.4c-5.4,0-10.1-1.3-14.2-4c-4.1-2.6-7.3-6.4-9.5-11.2
			c-2.3-4.8-3.4-10.4-3.4-16.7c0-6.3,1.1-11.7,3.4-16.4c2.3-4.7,5.4-8.3,9.5-10.9c4.1-2.6,8.8-3.9,14.2-3.9c5.1,0,9.5,1.1,13.1,3.4
			c3.6,2.3,6.4,5.5,8.2,9.7v-37c0-1.9,0.9-2.9,2.6-2.9C310.9,269.2,311.5,269.5,312,270z M301.8,347.1c3.7-4.6,5.6-11.1,5.6-19.6
			c0-8.4-1.8-14.8-5.5-19.4c-3.7-4.6-8.9-6.9-15.7-6.9c-6.8,0-12.1,2.3-15.9,6.8c-3.8,4.6-5.7,11-5.7,19.2c0,8.4,1.9,14.9,5.7,19.6
			c3.8,4.7,9,7.1,15.7,7.1C292.8,354,298.1,351.7,301.8,347.1z"/>
		<path class="st2" d="M333.3,280c-0.9-0.8-1.4-1.9-1.4-3.3c0-1.4,0.4-2.5,1.3-3.4c0.9-0.8,2-1.3,3.3-1.3c1.3,0,2.4,0.4,3.3,1.3
			c0.9,0.8,1.3,2,1.3,3.4c0,1.3-0.5,2.4-1.4,3.3c-0.9,0.8-2,1.3-3.3,1.3C335.3,281.2,334.3,280.8,333.3,280z M334.7,358.1
			c-0.5-0.5-0.7-1.2-0.7-2.1V299c0-0.8,0.2-1.5,0.7-2c0.5-0.5,1.1-0.8,1.9-0.8c0.8,0,1.5,0.3,1.9,0.8c0.5,0.5,0.7,1.2,0.7,2V356
			c0,0.9-0.2,1.6-0.7,2.1c-0.5,0.5-1.1,0.8-1.9,0.8C335.8,358.9,335.1,358.6,334.7,358.1z"/>
		<path class="st2" d="M369.3,355.2c-4.1-2.6-7.3-6.3-9.5-11c-2.3-4.8-3.4-10.3-3.4-16.7c0-6.3,1.1-11.8,3.4-16.5
			c2.3-4.8,5.4-8.4,9.5-11c4.1-2.6,8.8-3.9,14.2-3.9c5.3,0,10.1,1.3,14.2,3.9c4.1,2.6,7.3,6.3,9.5,11c2.3,4.8,3.4,10.3,3.4,16.5
			c0,6.4-1.1,11.9-3.4,16.7c-2.3,4.8-5.4,8.4-9.5,11c-4.1,2.6-8.8,3.9-14.2,3.9C378.1,359.1,373.4,357.8,369.3,355.2z M399.4,347.1
			c3.7-4.6,5.6-11.1,5.6-19.6c0-8.3-1.9-14.7-5.7-19.4c-3.8-4.6-9-7-15.7-7c-6.7,0-11.9,2.3-15.7,7c-3.8,4.6-5.7,11.1-5.7,19.4
			c0,8.5,1.9,15.1,5.6,19.6c3.7,4.6,9,6.8,15.7,6.8C390.3,354,395.6,351.7,399.4,347.1z"/>
		<path class="st2" d="M467.6,355.2c-4.2-2.6-7.4-6.3-9.7-11c-2.3-4.8-3.4-10.2-3.4-16.4c0-6.3,1.1-11.8,3.4-16.6
			c2.3-4.8,5.6-8.5,9.8-11.2c4.2-2.6,9-4,14.5-4c3.1,0,6.1,0.4,9,1.2c2.9,0.8,5.5,2,7.8,3.7c1.6,1.3,2.7,2.3,3.3,3.1
			c0.6,0.8,0.9,1.7,0.9,2.6c0,0.6-0.2,1.1-0.6,1.6c-0.4,0.5-0.9,0.7-1.5,0.7c-0.4,0-0.9-0.2-1.5-0.6c-0.6-0.4-1.2-0.8-1.9-1.3
			c-2.3-1.8-4.5-3.2-6.8-4.3c-2.3-1.1-5.2-1.6-8.6-1.6c-6.9,0-12.4,2.4-16.3,7.1c-3.9,4.8-5.9,11.3-5.9,19.7
			c0,8.2,1.9,14.6,5.8,19.2c3.9,4.6,9.3,6.9,16.2,6.9c3.5,0,6.5-0.5,9-1.6c2.5-1.1,4.8-2.5,7.1-4.3c1.6-1.2,2.7-1.8,3.3-1.8
			c0.6,0,1.1,0.2,1.5,0.6c0.4,0.4,0.6,0.9,0.6,1.5c0,0.8-0.3,1.6-0.9,2.3c-0.6,0.7-1.7,1.7-3.4,3c-2.2,1.6-4.8,2.9-8,3.9
			s-6.3,1.5-9.4,1.5C476.6,359.1,471.8,357.8,467.6,355.2z"/>
		<path class="st2" d="M545,296.3c1,0,1.7,0.2,2.1,0.6c0.4,0.4,0.6,0.9,0.6,1.7c0,1.4-0.9,2.3-2.6,2.5l-3.8,0.4
			c-6.1,0.6-10.7,2.8-13.8,6.8c-3.1,3.9-4.6,8.4-4.6,13.5V356c0,0.9-0.2,1.6-0.7,2.1c-0.5,0.5-1.1,0.8-1.9,0.8
			c-0.8,0-1.5-0.3-1.9-0.8c-0.5-0.5-0.7-1.2-0.7-2.1v-56.8c0-1.9,0.9-2.9,2.6-2.9c0.8,0,1.4,0.3,1.9,0.8c0.5,0.5,0.8,1.2,0.8,2.1v9
			c3.6-7.2,10.1-11.1,19.6-11.8l1.8-0.1H545z"/>
		<path class="st2" d="M604.7,347c0.4,0.5,0.6,1,0.6,1.6c0,0.8-0.3,1.7-0.9,2.4c-0.6,0.8-1.7,1.7-3.3,2.7c-6,3.6-12.2,5.4-18.7,5.4
			c-9.1,0-16.3-2.8-21.5-8.4c-5.2-5.6-7.8-13.3-7.8-23.1c0-6.3,1.2-11.8,3.5-16.5s5.6-8.5,9.9-11.1c4.3-2.6,9.2-4,14.7-4
			c7.7,0,13.7,2.5,18.2,7.5c4.4,5,6.6,11.9,6.6,20.6c0,1.5-0.3,2.6-0.9,3.3c-0.6,0.7-1.6,1-3.1,1h-43.1c0.1,8.2,2.2,14.5,6.2,18.9
			c4.1,4.4,9.8,6.6,17.1,6.6c4,0,7.3-0.5,10-1.6c2.6-1.1,5.2-2.5,7.7-4.3c1.8-1.2,2.9-1.8,3.4-1.8
			C603.7,346.3,604.2,346.5,604.7,347z M565.7,306.9c-3.9,4-6.2,9.5-6.8,16.6h42c-0.2-7.3-2-12.9-5.4-16.7
			c-3.4-3.9-8.2-5.8-14.4-5.8C574.7,300.9,569.6,302.9,565.7,306.9z"/>
		<path class="st2" d="M667.1,318.5v37.4c0,0.9-0.2,1.6-0.7,2.1c-0.5,0.5-1.1,0.8-1.9,0.8c-0.8,0-1.5-0.3-2-0.8
			c-0.5-0.5-0.8-1.2-0.8-2.1v-8.8c-1.8,3.8-4.5,6.8-8,8.9c-3.5,2.1-7.4,3.1-11.8,3.1c-3.8,0-7.4-0.8-10.5-2.4
			c-3.2-1.6-5.7-3.7-7.6-6.5c-1.9-2.7-2.9-5.7-2.9-9.1c-0.1-4.6,1-8.1,3.4-10.7c2.3-2.5,6.3-4.3,11.8-5.4c5.5-1.1,13.2-1.6,23.2-1.6
			h2.5v-5.3c0-5.9-1.2-10.3-3.6-13c-2.4-2.7-6.1-4.1-11.2-4.1c-4,0-7.6,0.5-10.7,1.6c-3.1,1-5.6,2.2-7.5,3.6c-0.3,0.2-1,0.7-2.1,1.4
			c-1,0.7-1.9,1.1-2.6,1.1c-0.6,0-1.1-0.2-1.6-0.7c-0.5-0.5-0.7-1-0.7-1.7c0-1.6,1.5-3.3,4.4-5c2.9-1.8,6.1-3.1,9.6-4
			c3.5-0.9,6.9-1.4,10.3-1.4C660.1,296,667.1,303.5,667.1,318.5z M652,351.1c3-1.8,5.4-4.3,7.1-7.5c1.7-3.2,2.6-6.8,2.6-10.8v-4.5
			h-2.4c-8.8,0-15.5,0.4-20.1,1.1c-4.6,0.7-7.8,1.9-9.7,3.6c-1.8,1.7-2.8,4.2-2.8,7.6c0,3.8,1.4,7,4.3,9.5c2.8,2.5,6.4,3.7,10.8,3.7
			C645.7,353.8,649,352.9,652,351.1z"/>
		<path class="st2" d="M715.7,356.5c0,1.8-1.2,2.6-3.6,2.4l-3.3-0.3c-6.3-0.4-10.9-2.3-13.8-5.7c-2.9-3.4-4.4-8.6-4.4-15.7v-35.1
			h-10.4c-0.6,0-1.1-0.2-1.5-0.6c-0.4-0.4-0.6-0.9-0.6-1.5c0-0.7,0.2-1.2,0.6-1.7c0.4-0.5,0.9-0.7,1.5-0.7h10.4v-16.7
			c0-0.9,0.3-1.6,0.8-2.1c0.5-0.5,1.1-0.8,1.9-0.8c0.8,0,1.4,0.3,1.9,0.8c0.5,0.5,0.8,1.2,0.8,2.1v16.7h16.7c0.6,0,1.1,0.2,1.5,0.7
			c0.4,0.5,0.6,1,0.6,1.7c0,0.6-0.2,1.1-0.6,1.5c-0.4,0.4-0.9,0.6-1.6,0.6h-16.7v35.2c0,5.7,1.1,9.7,3.3,12.2
			c2.2,2.4,5.7,3.8,10.3,4.3l3.4,0.3C714.8,354.1,715.7,355,715.7,356.5z"/>
		<path class="st2" d="M726.9,280c-0.9-0.8-1.4-1.9-1.4-3.3c0-1.4,0.4-2.5,1.3-3.4c0.9-0.8,2-1.3,3.3-1.3c1.3,0,2.4,0.4,3.3,1.3
			c0.9,0.8,1.3,2,1.3,3.4c0,1.3-0.5,2.4-1.4,3.3c-0.9,0.8-2,1.3-3.3,1.3S727.8,280.8,726.9,280z M728.2,358.1
			c-0.5-0.5-0.7-1.2-0.7-2.1V299c0-0.8,0.2-1.5,0.7-2c0.5-0.5,1.1-0.8,1.9-0.8c0.8,0,1.5,0.3,1.9,0.8c0.5,0.5,0.7,1.2,0.7,2V356
			c0,0.9-0.2,1.6-0.7,2.1c-0.5,0.5-1.1,0.8-1.9,0.8C729.3,358.9,728.7,358.6,728.2,358.1z"/>
		<path class="st2" d="M801.6,296.3c0.7,0,1.3,0.2,1.8,0.7c0.5,0.5,0.8,1.1,0.8,1.8c0,0.3-0.1,0.6-0.2,1.1l-25.5,56.2
			c-0.8,1.5-1.9,2.3-3.5,2.3c-0.8,0-1.4-0.2-2-0.6c-0.6-0.4-1-0.9-1.4-1.7l-25.3-56.2l-0.2-1c0-0.8,0.3-1.4,0.9-1.9
			c0.6-0.5,1.3-0.8,2-0.8c1.1,0,1.8,0.5,2.1,1.5l24.1,54.4l24.2-54C799.7,296.9,800.5,296.3,801.6,296.3z"/>
		<path class="st2" d="M825.6,355.2c-4.1-2.6-7.3-6.3-9.5-11s-3.4-10.3-3.4-16.7c0-6.3,1.1-11.8,3.4-16.5c2.3-4.8,5.4-8.4,9.5-11
			c4.1-2.6,8.8-3.9,14.2-3.9s10.1,1.3,14.2,3.9c4.1,2.6,7.3,6.3,9.5,11c2.3,4.8,3.4,10.3,3.4,16.5c0,6.4-1.1,11.9-3.4,16.7
			c-2.3,4.8-5.4,8.4-9.5,11c-4.1,2.6-8.8,3.9-14.2,3.9S829.7,357.8,825.6,355.2z M855.6,347.1c3.7-4.6,5.6-11.1,5.6-19.6
			c0-8.3-1.9-14.7-5.7-19.4c-3.8-4.6-9-7-15.7-7s-11.9,2.3-15.7,7c-3.8,4.6-5.7,11.1-5.7,19.4c0,8.5,1.9,15.1,5.6,19.6
			c3.7,4.6,9,6.8,15.7,6.8C846.5,354,851.9,351.7,855.6,347.1z"/>
	</g>
</g>
</svg>
