<?xml version="1.0" encoding="utf-8"?>
<!-- Generator: Adobe Illustrator 23.0.5, SVG Export Plug-In . SVG Version: 6.00 Build 0)  -->
<svg version="1.1" id="Layer_1" xmlns="http://www.w3.org/2000/svg" xmlns:xlink="http://www.w3.org/1999/xlink" x="0px" y="0px"
	 viewBox="0 0 1200 1200" style="enable-background:new 0 0 1200 1200;" xml:space="preserve">
<style type="text/css">
	.st0{fill:#D5663B;}
	.st1{fill:#89CCB7;}
	.st2{fill:#E6E9E8;}
	.st3{fill:#365147;}
</style>
<rect x="-19" y="-19" class="st0" width="1238" height="1238"/>
<g>
	<g>
		<path class="st2" d="M189.2,642.2c-3.8-3.8-5.7-9.2-5.7-16.2V457.6c0-7,2.1-12.6,6.3-16.8c4.2-4.2,9.9-6.3,17.1-6.3
			c7.2,0,12.9,2.1,17.1,6.3c4.2,4.2,6.3,9.8,6.3,16.8v152.2h77c14.6,0,22,6.4,22,19.2c0,12.6-7.3,18.9-22,18.9H205.4
			C198.4,647.9,193,646,189.2,642.2z"/>
		<path class="st1" d="M365.9,627.6c-15.5-15.3-23.3-37.7-23.3-67.2V457.6c0-7,2.1-12.6,6.3-16.8c4.2-4.2,9.8-6.3,16.8-6.3
			c7,0,12.6,2.1,16.7,6.3c4.1,4.2,6.2,9.8,6.2,16.8v104.9c0,16.8,3.9,29.7,11.6,38.5c7.7,8.8,18.9,13.2,33.5,13.2
			c14.6,0,25.9-4.5,33.7-13.4c7.8-8.9,11.7-21.7,11.7-38.3V457.6c0-7,2.1-12.6,6.2-16.8c4.1-4.2,9.7-6.3,16.7-6.3
			c7,0,12.6,2.1,16.8,6.3c4.2,4.2,6.3,9.8,6.3,16.8v102.8c0,29.3-7.8,51.6-23.5,67.1c-15.6,15.4-38.3,23.2-68,23.2
			C404,650.6,381.4,643,365.9,627.6z"/>
		<path class="st2" d="M770.3,440.9c4.1,4.3,6.2,9.9,6.2,16.7v170.8c0,6.6-1.9,11.8-5.7,15.6c-3.8,3.8-8.8,5.7-15,5.7
			c-6,0-10.9-1.9-14.7-5.7c-3.8-3.8-5.7-9-5.7-15.6V522.2l-42.7,80.3c-2.8,5.2-5.9,9-9.2,11.4s-7.3,3.6-11.9,3.6
			c-4.4,0-8.3-1.2-11.7-3.6c-3.4-2.4-6.5-6.2-9.3-11.4l-42.7-78.8v104.6c0,6.4-1.9,11.6-5.7,15.5c-3.8,3.9-8.8,5.9-15,5.9
			c-6,0-10.9-1.9-14.7-5.7c-3.8-3.8-5.7-9-5.7-15.6V457.6c0-6.8,2.1-12.4,6.2-16.7c4.1-4.3,9.5-6.5,16.1-6.5c9.6,0,16.9,5.1,22,15.3
			l61,115.8l60.7-115.8c5.4-10.2,12.6-15.3,21.7-15.3C760.9,434.4,766.2,436.6,770.3,440.9z"/>
		<path class="st2" d="M1019.2,629c0,5.6-2.3,10.4-6.8,14.3c-4.5,3.9-9.7,5.9-15.5,5.9c-3.8,0-7.4-1.1-10.8-3.2
			c-3.4-2.1-6-5.3-7.8-9.5L962.3,601H860.4l-15.9,35.5c-1.8,4.2-4.4,7.4-7.7,9.5c-3.3,2.1-7,3.2-11,3.2c-5.8,0-11-2-15.6-5.9
			c-4.6-3.9-6.9-8.7-6.9-14.3c0-2.8,0.8-6,2.4-9.6l81.2-170.5c2.2-4.8,5.5-8.5,9.9-11c4.4-2.5,9.1-3.8,14.1-3.8
			c5.2,0,10,1.3,14.4,3.9c4.4,2.6,7.8,6.2,10.2,10.8l81.2,170.5C1018.4,623,1019.2,626.2,1019.2,629z M876.3,565.5h70.1l-34.9-78.2
			L876.3,565.5z"/>
	</g>
	<g>
		<path class="st2" d="M231.5,753.8c0.4,0.5,0.6,1,0.6,1.6c0,0.8-0.3,1.7-0.9,2.4c-0.6,0.8-1.7,1.7-3.3,2.7
			c-6,3.6-12.2,5.4-18.7,5.4c-9.1,0-16.3-2.8-21.5-8.4c-5.2-5.6-7.8-13.3-7.8-23.1c0-6.3,1.2-11.8,3.5-16.5
			c2.3-4.8,5.6-8.5,9.9-11.1c4.3-2.6,9.2-4,14.7-4c7.7,0,13.7,2.5,18.2,7.5c4.4,5,6.6,11.9,6.6,20.6c0,1.5-0.3,2.6-0.9,3.3
			c-0.6,0.7-1.6,1-3.1,1h-43.1c0.1,8.2,2.2,14.5,6.2,18.9c4.1,4.4,9.8,6.6,17.1,6.6c4,0,7.3-0.5,10-1.6c2.6-1.1,5.2-2.5,7.7-4.3
			c1.8-1.2,2.9-1.8,3.4-1.8C230.6,753.1,231.1,753.3,231.5,753.8z M192.6,713.6c-3.9,4-6.2,9.5-6.8,16.6h42
			c-0.2-7.3-2-12.9-5.4-16.7c-3.4-3.9-8.2-5.8-14.4-5.8C201.6,707.7,196.5,709.7,192.6,713.6z"/>
		<path class="st2" d="M258.9,764.4c-3.3-1-6.2-2.3-8.8-3.9c-1.7-1.1-2.8-2-3.4-2.7c-0.6-0.7-0.9-1.5-0.9-2.4c0-0.6,0.2-1.1,0.6-1.6
			c0.4-0.5,0.9-0.7,1.5-0.7c0.4,0,1,0.2,1.7,0.7s1.2,0.8,1.4,0.9c2.4,1.8,5,3.2,7.6,4.3c2.6,1.1,6,1.7,10,1.7c5.4,0,9.6-1,12.5-3
			c2.9-2,4.4-4.8,4.4-8.5c0-2.2-0.5-4-1.6-5.4c-1-1.4-2.8-2.7-5.1-3.7c-2.4-1-5.8-2.1-10.2-3.1c-7.4-1.7-12.6-3.8-15.8-6.4
			c-3.2-2.6-4.8-6-4.8-10.3c0-5.2,2-9.4,6.1-12.7c4.1-3.3,9.3-4.9,15.7-4.9c3.1,0,6.1,0.4,8.9,1.3c2.8,0.8,5.3,2,7.5,3.5
			c1.6,1.2,2.7,2.2,3.4,3.1c0.7,0.9,1.1,1.8,1.1,2.7c0,0.6-0.2,1.1-0.6,1.6c-0.4,0.5-0.9,0.7-1.5,0.7c-0.7,0-1.8-0.6-3.3-1.9
			c-2.2-1.7-4.5-3.1-6.8-4.1c-2.4-1.1-5.4-1.6-9-1.6c-4.7,0-8.5,1.1-11.3,3.3c-2.9,2.2-4.3,5.1-4.3,8.7c0,2.2,0.5,4,1.4,5.3
			s2.5,2.6,4.7,3.6c2.2,1,5.4,2,9.5,2.9c5.8,1.4,10.2,2.9,13.3,4.3c3.1,1.5,5.3,3.2,6.6,5.3c1.3,2,1.9,4.7,1.9,7.8
			c0,5-2.1,9.1-6.2,12.1c-4.1,3.1-9.6,4.6-16.5,4.6C265.4,765.9,262.1,765.4,258.9,764.4z"/>
		<path class="st2" d="M336.3,763.2c0,1.8-1.2,2.6-3.6,2.4l-3.3-0.3c-6.3-0.4-10.9-2.3-13.8-5.7c-2.9-3.4-4.4-8.6-4.4-15.7v-35.1
			h-10.4c-0.6,0-1.1-0.2-1.5-0.6c-0.4-0.4-0.6-0.9-0.6-1.5c0-0.7,0.2-1.2,0.6-1.7c0.4-0.5,0.9-0.7,1.5-0.7h10.4v-16.7
			c0-0.9,0.2-1.6,0.8-2.1c0.5-0.5,1.1-0.8,1.9-0.8c0.8,0,1.4,0.3,1.9,0.8c0.5,0.5,0.8,1.2,0.8,2.1v16.7h16.7c0.6,0,1.1,0.2,1.5,0.7
			c0.4,0.5,0.6,1,0.6,1.7c0,0.6-0.2,1.1-0.6,1.5c-0.4,0.4-0.9,0.6-1.6,0.6h-16.7V744c0,5.7,1.1,9.7,3.3,12.2
			c2.2,2.4,5.7,3.8,10.3,4.3l3.4,0.3C335.4,760.9,336.3,761.7,336.3,763.2z"/>
		<path class="st2" d="M394.4,703.8c0.5,0.5,0.7,1.2,0.7,2v56.9c0,1.9-0.9,2.9-2.6,2.9c-0.8,0-1.4-0.3-1.8-0.8
			c-0.5-0.5-0.7-1.2-0.7-2.1v-9.2c-1.9,3.9-4.7,7-8.3,9.1c-3.6,2.1-7.8,3.2-12.4,3.2c-7,0-12.4-2-16-5.9c-3.6-3.9-5.5-9.7-5.5-17.3
			v-36.9c0-0.8,0.2-1.5,0.7-2c0.5-0.5,1.1-0.8,1.9-0.8c0.8,0,1.5,0.3,1.9,0.8c0.5,0.5,0.7,1.2,0.7,2v36.4c0,6.4,1.3,11,3.9,14
			c2.6,3,6.6,4.5,12,4.5c6.3,0,11.3-2,15.1-6c3.8-4,5.7-9.3,5.7-15.9v-33.1c0-0.8,0.2-1.5,0.7-2c0.5-0.5,1.1-0.8,1.9-0.8
			C393.3,703,394,703.3,394.4,703.8z"/>
		<path class="st2" d="M465.3,676.7c0.5,0.5,0.7,1.2,0.7,2.1v83.8c0,0.9-0.2,1.6-0.7,2.1c-0.5,0.5-1.1,0.8-1.9,0.8
			c-1.8,0-2.6-1-2.6-2.9v-9.9c-1.8,4.3-4.6,7.5-8.2,9.8c-3.6,2.3-8,3.4-13.1,3.4c-5.4,0-10.1-1.3-14.2-4c-4.1-2.6-7.3-6.4-9.5-11.2
			c-2.3-4.8-3.4-10.4-3.4-16.7c0-6.3,1.1-11.7,3.4-16.4c2.3-4.7,5.4-8.3,9.5-10.9c4.1-2.6,8.8-3.9,14.2-3.9c5.1,0,9.5,1.1,13.1,3.4
			s6.4,5.5,8.2,9.7v-37c0-1.9,0.9-2.9,2.6-2.9C464.2,676,464.8,676.2,465.3,676.7z M455.1,753.8c3.7-4.6,5.6-11.1,5.6-19.6
			c0-8.4-1.8-14.8-5.5-19.4c-3.7-4.6-8.9-6.9-15.7-6.9c-6.8,0-12.1,2.3-15.9,6.8c-3.8,4.6-5.7,11-5.7,19.2c0,8.4,1.9,14.9,5.7,19.6
			c3.8,4.7,9,7.1,15.7,7.1C446.2,760.7,451.4,758.4,455.1,753.8z"/>
		<path class="st2" d="M486.7,686.8c-0.9-0.8-1.4-1.9-1.4-3.3c0-1.4,0.4-2.5,1.3-3.4c0.9-0.8,2-1.3,3.3-1.3c1.3,0,2.4,0.4,3.3,1.3
			c0.9,0.8,1.3,2,1.3,3.4c0,1.3-0.5,2.4-1.4,3.3c-0.9,0.8-2,1.3-3.3,1.3C488.7,688,487.6,687.6,486.7,686.8z M488,764.9
			c-0.5-0.5-0.7-1.2-0.7-2.1v-56.9c0-0.8,0.2-1.5,0.7-2c0.5-0.5,1.1-0.8,1.9-0.8c0.8,0,1.5,0.3,1.9,0.8c0.5,0.5,0.7,1.2,0.7,2v56.9
			c0,0.9-0.2,1.6-0.7,2.1c-0.5,0.5-1.1,0.8-1.9,0.8C489.1,765.6,488.4,765.4,488,764.9z"/>
		<path class="st2" d="M522.6,762c-4.1-2.6-7.3-6.3-9.5-11c-2.3-4.8-3.4-10.3-3.4-16.7c0-6.3,1.1-11.8,3.4-16.5
			c2.3-4.8,5.4-8.4,9.5-11c4.1-2.6,8.8-3.9,14.2-3.9c5.3,0,10.1,1.3,14.2,3.9c4.1,2.6,7.3,6.3,9.5,11c2.3,4.8,3.4,10.3,3.4,16.5
			c0,6.4-1.1,11.9-3.4,16.7c-2.3,4.8-5.4,8.4-9.5,11c-4.1,2.6-8.8,3.9-14.2,3.9C531.5,765.9,526.7,764.6,522.6,762z M552.7,753.9
			c3.7-4.6,5.6-11.1,5.6-19.6c0-8.3-1.9-14.7-5.7-19.4c-3.8-4.6-9-7-15.7-7c-6.7,0-11.9,2.3-15.7,7c-3.8,4.6-5.7,11.1-5.7,19.4
			c0,8.5,1.9,15.1,5.6,19.6c3.7,4.6,9,6.8,15.7,6.8C543.6,760.7,549,758.4,552.7,753.9z"/>
		<path class="st2" d="M620.9,762c-4.2-2.6-7.4-6.3-9.7-11c-2.3-4.8-3.4-10.2-3.4-16.4c0-6.3,1.1-11.8,3.4-16.6
			c2.3-4.8,5.6-8.5,9.8-11.2c4.2-2.6,9-4,14.5-4c3.1,0,6.1,0.4,9,1.2c2.9,0.8,5.5,2,7.8,3.7c1.6,1.3,2.7,2.3,3.3,3.1
			c0.6,0.8,0.9,1.7,0.9,2.6c0,0.6-0.2,1.1-0.6,1.6c-0.4,0.5-0.9,0.7-1.5,0.7c-0.4,0-0.9-0.2-1.5-0.6c-0.6-0.4-1.2-0.8-1.9-1.3
			c-2.3-1.8-4.5-3.2-6.8-4.3c-2.3-1.1-5.2-1.6-8.6-1.6c-6.9,0-12.4,2.4-16.3,7.1c-3.9,4.8-5.9,11.3-5.9,19.7
			c0,8.2,1.9,14.6,5.8,19.2c3.9,4.6,9.3,6.9,16.2,6.9c3.5,0,6.5-0.5,9-1.6c2.5-1.1,4.8-2.5,7.1-4.3c1.6-1.2,2.7-1.8,3.3-1.8
			c0.6,0,1.1,0.2,1.5,0.6c0.4,0.4,0.6,0.9,0.6,1.5c0,0.8-0.3,1.6-0.9,2.3c-0.6,0.7-1.7,1.7-3.4,3c-2.2,1.6-4.8,2.9-8,3.9
			s-6.3,1.5-9.4,1.5C629.9,765.9,625.1,764.6,620.9,762z"/>
		<path class="st2" d="M698.3,703c1,0,1.7,0.2,2.1,0.6c0.4,0.4,0.6,0.9,0.6,1.7c0,1.4-0.9,2.3-2.6,2.5l-3.8,0.4
			c-6.1,0.6-10.7,2.8-13.8,6.8c-3.1,3.9-4.6,8.4-4.6,13.5v34.2c0,0.9-0.2,1.6-0.7,2.1c-0.5,0.5-1.1,0.8-1.9,0.8
			c-0.8,0-1.5-0.3-1.9-0.8c-0.5-0.5-0.7-1.2-0.7-2.1v-56.8c0-1.9,0.9-2.9,2.6-2.9c0.8,0,1.4,0.3,1.9,0.8c0.5,0.5,0.8,1.2,0.8,2.1v9
			c3.6-7.2,10.1-11.1,19.6-11.8l1.8-0.1H698.3z"/>
		<path class="st2" d="M758,753.8c0.4,0.5,0.6,1,0.6,1.6c0,0.8-0.3,1.7-0.9,2.4c-0.6,0.8-1.7,1.7-3.3,2.7c-6,3.6-12.2,5.4-18.7,5.4
			c-9.1,0-16.3-2.8-21.5-8.4c-5.2-5.6-7.8-13.3-7.8-23.1c0-6.3,1.2-11.8,3.5-16.5c2.3-4.8,5.6-8.5,9.9-11.1c4.3-2.6,9.2-4,14.7-4
			c7.7,0,13.7,2.5,18.2,7.5c4.4,5,6.6,11.9,6.6,20.6c0,1.5-0.3,2.6-0.9,3.3c-0.6,0.7-1.6,1-3.1,1h-43.1c0.1,8.2,2.2,14.5,6.2,18.9
			c4.1,4.4,9.8,6.6,17.1,6.6c4,0,7.3-0.5,10-1.6c2.6-1.1,5.2-2.5,7.7-4.3c1.8-1.2,2.9-1.8,3.4-1.8
			C757.1,753.1,757.6,753.3,758,753.8z M719,713.6c-3.9,4-6.2,9.5-6.8,16.6h42c-0.2-7.3-2-12.9-5.4-16.7c-3.4-3.9-8.2-5.8-14.4-5.8
			C728,707.7,722.9,709.7,719,713.6z"/>
		<path class="st2" d="M820.4,725.2v37.4c0,0.9-0.2,1.6-0.7,2.1c-0.5,0.5-1.1,0.8-1.9,0.8c-0.8,0-1.5-0.3-2-0.8
			c-0.5-0.5-0.8-1.2-0.8-2.1v-8.8c-1.8,3.8-4.5,6.8-8,8.9c-3.5,2.1-7.4,3.1-11.8,3.1c-3.8,0-7.4-0.8-10.5-2.4
			c-3.2-1.6-5.7-3.7-7.6-6.5c-1.9-2.7-2.9-5.7-2.9-9.1c-0.1-4.6,1-8.1,3.4-10.7c2.3-2.5,6.3-4.3,11.8-5.4c5.5-1.1,13.2-1.6,23.2-1.6
			h2.5V725c0-5.9-1.2-10.3-3.6-13c-2.4-2.7-6.1-4.1-11.2-4.1c-4,0-7.6,0.5-10.7,1.6c-3.1,1-5.6,2.2-7.5,3.6c-0.3,0.2-1,0.7-2.1,1.4
			c-1,0.7-1.9,1.1-2.6,1.1c-0.6,0-1.1-0.2-1.6-0.7c-0.5-0.5-0.7-1-0.7-1.7c0-1.6,1.5-3.3,4.4-5c2.9-1.8,6.1-3.1,9.6-4
			c3.5-0.9,6.9-1.4,10.3-1.4C813.4,702.8,820.4,710.3,820.4,725.2z M805.4,757.9c3-1.8,5.4-4.3,7.1-7.5c1.7-3.2,2.6-6.8,2.6-10.8
			v-4.5h-2.4c-8.8,0-15.5,0.4-20.1,1.1c-4.6,0.7-7.8,1.9-9.7,3.6c-1.8,1.7-2.8,4.2-2.8,7.6c0,3.8,1.4,7,4.3,9.5
			c2.8,2.5,6.4,3.7,10.8,3.7C799,760.6,802.4,759.7,805.4,757.9z"/>
		<path class="st2" d="M869.1,763.2c0,1.8-1.2,2.6-3.6,2.4l-3.3-0.3c-6.3-0.4-10.9-2.3-13.8-5.7c-2.9-3.4-4.4-8.6-4.4-15.7v-35.1
			h-10.4c-0.6,0-1.1-0.2-1.5-0.6c-0.4-0.4-0.6-0.9-0.6-1.5c0-0.7,0.2-1.2,0.6-1.7c0.4-0.5,0.9-0.7,1.5-0.7H844v-16.7
			c0-0.9,0.3-1.6,0.8-2.1c0.5-0.5,1.1-0.8,1.9-0.8c0.8,0,1.4,0.3,1.9,0.8c0.5,0.5,0.8,1.2,0.8,2.1v16.7h16.7c0.6,0,1.1,0.2,1.5,0.7
			c0.4,0.5,0.6,1,0.6,1.7c0,0.6-0.2,1.1-0.6,1.5c-0.4,0.4-0.9,0.6-1.6,0.6h-16.7V744c0,5.7,1.1,9.7,3.3,12.2
			c2.2,2.4,5.7,3.8,10.3,4.3l3.4,0.3C868.1,760.9,869.1,761.7,869.1,763.2z"/>
		<path class="st2" d="M880.2,686.8c-0.9-0.8-1.4-1.9-1.4-3.3c0-1.4,0.4-2.5,1.3-3.4c0.9-0.8,2-1.3,3.3-1.3c1.3,0,2.4,0.4,3.3,1.3
			c0.9,0.8,1.3,2,1.3,3.4c0,1.3-0.5,2.4-1.4,3.3c-0.9,0.8-2,1.3-3.3,1.3S881.1,687.6,880.2,686.8z M881.5,764.9
			c-0.5-0.5-0.7-1.2-0.7-2.1v-56.9c0-0.8,0.2-1.5,0.7-2c0.5-0.5,1.1-0.8,1.9-0.8c0.8,0,1.5,0.3,1.9,0.8c0.5,0.5,0.7,1.2,0.7,2v56.9
			c0,0.9-0.2,1.6-0.7,2.1c-0.5,0.5-1.1,0.8-1.9,0.8C882.6,765.6,882,765.4,881.5,764.9z"/>
		<path class="st2" d="M954.9,703c0.7,0,1.3,0.2,1.8,0.7c0.5,0.5,0.8,1.1,0.8,1.8c0,0.3-0.1,0.6-0.2,1.1l-25.5,56.2
			c-0.8,1.5-1.9,2.3-3.5,2.3c-0.8,0-1.4-0.2-2-0.6c-0.6-0.4-1-0.9-1.4-1.7l-25.3-56.2l-0.2-1c0-0.8,0.3-1.4,0.9-1.9
			c0.6-0.5,1.3-0.8,2-0.8c1.1,0,1.8,0.5,2.1,1.5l24.1,54.4l24.2-54C953.1,703.6,953.9,703,954.9,703z"/>
		<path class="st2" d="M978.9,762c-4.1-2.6-7.3-6.3-9.5-11c-2.3-4.8-3.4-10.3-3.4-16.7c0-6.3,1.1-11.8,3.4-16.5s5.4-8.4,9.5-11
			c4.1-2.6,8.8-3.9,14.2-3.9s10.1,1.3,14.2,3.9c4.1,2.6,7.3,6.3,9.5,11c2.3,4.8,3.4,10.3,3.4,16.5c0,6.4-1.1,11.9-3.4,16.7
			c-2.3,4.8-5.4,8.4-9.5,11c-4.1,2.6-8.8,3.9-14.2,3.9S983,764.6,978.9,762z M1008.9,753.9c3.7-4.6,5.6-11.1,5.6-19.6
			c0-8.3-1.9-14.7-5.7-19.4c-3.8-4.6-9-7-15.7-7s-11.9,2.3-15.7,7c-3.8,4.6-5.7,11.1-5.7,19.4c0,8.5,1.9,15.1,5.6,19.6
			c3.7,4.6,9,6.8,15.7,6.8C999.9,760.7,1005.2,758.4,1008.9,753.9z"/>
	</g>
</g>
</svg>
